<svg xmlns="http://www.w3.org/2000/svg" viewBox="0 0 380.78 246.08">
    <defs>
        <style>.cls-1{fill:#fff;}</style>
    </defs>
    <g id="Capa_2" data-name="Capa 2">
        <g id="Capa_1-2" data-name="Capa 1">
            <path class="cls-1" d="M146.28,36.13l-1.13,2.67.45.3c2-2.68,4.08-5.32,6-8.06A1.89,1.89,0,0,1,153.3,30c5-.21,8.54-3,11.36-6.87a.92.92,0,0,0,.22-.41c.23-2.91,2.1-4.89,3.94-6.86.74-.79,1.62-1.45,2.43-2.16-.05-.11-.07-.25-.12-.26-1.86-.35-3.71-.81-5.59-1s-3,.73-3.66,2.71a3.32,3.32,0,0,1-1.58,1.93c-.55.18-1.49-.47-2.12-.94-.8-.59-1.44-1.39-2.2-2a5.36,5.36,0,0,0-4.1-1.21c-3.24.17-6.51.05-10.33.05l4.72,3.57h-3.38l-.19.55,5.68,2.57-2.53.65c1.37,1.38,3.16,1.43,5.09,1.66l-1.46,1.29,3.34.15c-1.62,1.86-2.84,3.72-4.49,5-2.76,2.21-5.79,4.07-8.66,6.42l5.21-.6-3.66,4.41.09.21Z"/>
            <path class="cls-1" d="M140,123.93l16.76.27q-4.08-10.26-8.22-20.49Q144.3,113.84,140,123.93Z"/>
            <path class="cls-1" d="M380.72,161.21c-.71-31.9-2.23-63.8-1.83-95.68.29-23.31-25.52-38-44-29.84a51.12,51.12,0,0,1-7.43,2.51c-12.6,3.32-25.6-1-32.1-10.52-3-4.42-6.5-4.92-10.59-1.45-2.9,2.45-5.11,5.52-7.84,9-.63-2.41-1-4.3-1.62-6.1a34,34,0,0,0-2.36-5.66c-2.31-4.15-5.91-5.08-9.4-2.46a33.37,33.37,0,0,1-14.38,5.92c-7.07,1.29-10.1-.31-12.8-7-1.45-3.58-2.51-7.33-4.16-10.81C229.52,3.49,225.35-.28,218.61,0c-6.31.28-11,3.72-14.79,8.29-5.66,6.78-12.59,11.92-20,16.43-6,3.61-12,7.23-17.08,12-8.41,7.79-18.22,11.06-29.68,10.93-10-.11-19.63,2.47-28.82,6.47S91.68,64.68,83.43,70c-8.07,5.16-16.58,6.53-25.52,3.32-10.4-3.73-20.58-2.68-30.95,0C12.27,77.06,4.29,87,2,101.28-.32,115.41.47,129.8,0,144.07c-.07,2.34,1.49,1.52,2.52,1.59q23.61,1.58,47.22,3.06,30.45,1.92,60.89,3.81c17.23,1.05,34.46,2,51.7,3.05q32.5,1.9,65,3.84,23.61,1.43,47.21,3,28,1.88,56.08,3.87c13.68,1,27.38,1.84,41,3.09C381,170.23,380.93,170.5,380.72,161.21ZM30.86,138.34l-15.81-1,.15-41.18L31,95.28Zm78.4,4.82-14-.86,0-32.14q-7,13.26-14.17,26.37L70.76,136q-6.86-12.74-14-25.32-.06,14.61-.11,29.23l-14.07-.87.15-44.46L60,93.6q8.23,13.55,16,27.34c5.54-9.66,10.9-19.4,16.17-29.19l17.28-1Zm56.22,3.45c-1.65-4.28-2.47-6.41-4.11-10.62l-26.17-1.06c-1.71,3.86-2.56,5.77-4.27,9.56l-16.23-1q13.65-27,26.19-54.56L157.13,88q13.1,29.64,25.19,59.66ZM215.78,136a23.11,23.11,0,0,0,10.46-2.74c0-6.7,0-10.05.06-16.75H240l-.09,26.77a41.7,41.7,0,0,1-25.25,7.14c-18.11-.76-32.34-16.68-32.27-33.24.06-17,15.38-32.21,33.54-33,9-.39,18.31,2.52,24.84,8.64-3.61,5.12-5.41,7.64-9,12.6a22.88,22.88,0,0,0-16-6.84c-10.12.14-17.13,10.07-17.17,18.63S205.59,135.78,215.78,136Zm83.11,18.86-48.61-3,.24-69.22,47.77-2.76-.05,15.6-32,1,0,13.29,28.85-.31L295,124.89l-28.85-.3L266.13,138l32.82,1.2Zm65.71,4L350.79,158q-13.29-24.37-27.3-48.38-.08,23.36-.16,46.7l-14.77-.91.27-76.17,13.91-.81q14,23.43,27.3,47.24l.17-48.82L364.89,76Q364.76,117.42,364.6,158.84Z"/>
            <path class="cls-1" d="M25.2,158.4v67.48l23.24-.78v18.66l-37.56,2.32v-88.6Z"/>
            <path class="cls-1" d="M91.7,227.23,68,228.16c-1.53,5.82-2.3,8.75-3.83,14.64l-14.71.9Q60.88,202.5,73,161.49l14.71.95q11.16,38.85,23,77.49l-15.25.94C94,235.45,93.2,232.72,91.7,227.23Zm-4.22-15.6q-3.8-14.17-7.52-28.38-3.85,14.3-7.66,28.6Z"/>
            <path class="cls-1" d="M152,166.59v15.25l-16.44-.61V238.4l-14.31.88V180.69L105,180.08V163.56Z"/>
            <path class="cls-1" d="M201.08,169.76v13.46l-29-1.11v12.75l26.14.39v13.44l-26.14.39v12.85l29.74-1.05v13.44L157.81,237V167Z"/>
            <path class="cls-1" d="M223.23,171.19q12.09,18.7,24.88,36.93V172.8l13.3.85v57l-12.52.77Q236.07,214,224,196v37l-13.38.82v-63.4Z"/>
            <path class="cls-1" d="M314.38,177.07v10.84L298,187.3v41.1l-14.32.89V186.76l-16.28-.61V174Z"/>
            <path class="cls-1" d="M363.43,180.24v9.19l-28.95-1.11v8.93l26.13.39v9.2l-26.13.37v9l29.73-1v9.18l-44,2.71V177.45Z"/>
        </g>
    </g>
</svg>